<svg xmlns="http://www.w3.org/2000/svg" width="121.934" height="143.341" viewBox="0 0 121.934 143.341">
  <g id="undraw_Choose_bwbs" transform="translate(0)">
    <path id="Path_136" data-name="Path 136" d="M483.545,102.6l-11.669-3.528-.718,15.957,12.28,3.7Z" transform="translate(-369.836 -77.763)" fill="#f5f5f5"/>
    <path id="Path_137" data-name="Path 137" d="M146.808,0V16.237L216.56,37.261l.718-15.957Z" transform="translate(-115.237)" fill="#f5f5f5"/>
    <path id="Path_138" data-name="Path 138" d="M483.545,102.6l-11.669-3.528-.718,15.957,12.28,3.7Z" transform="translate(-369.836 -77.763)" opacity="0.1"/>
    <path id="Path_139" data-name="Path 139" d="M483.545,244.716l-11.669-3.528-.718,15.957,12.28,3.7Z" transform="translate(-369.836 -189.32)" fill="#3ad29f"/>
    <path id="Path_140" data-name="Path 140" d="M146.808,142.12v16.237l69.752,21.025.718-15.957Z" transform="translate(-115.237 -111.557)" fill="#3ad29f"/>
    <path id="Path_141" data-name="Path 141" d="M483.545,244.716l-11.669-3.528-.718,15.957,12.28,3.7Z" transform="translate(-369.836 -189.32)" opacity="0.1"/>
    <path id="Path_142" data-name="Path 142" d="M488.291,276.774l1.91,2.865,3.82-4.775" transform="translate(-383.283 -215.754)" fill="none" stroke="#fff" stroke-linecap="round" stroke-miterlimit="10" stroke-width="7"/>
    <g id="Group_16" data-name="Group 16" transform="translate(105.114 27.592)" opacity="0.4">
      <line id="Line_9" data-name="Line 9" x2="3.82" y2="6.686" fill="none" stroke="#fff" stroke-linecap="round" stroke-miterlimit="10" stroke-width="7"/>
      <line id="Line_10" data-name="Line 10" x1="4.775" y2="4.775" transform="translate(0 0.955)" fill="none" stroke="#fff" stroke-linecap="round" stroke-miterlimit="10" stroke-width="7"/>
    </g>
    <path id="Path_143" data-name="Path 143" d="M483.545,377.954l-11.669-3.528-.718,15.957,12.28,3.7Z" transform="translate(-369.836 -293.905)" fill="#f5f5f5"/>
    <path id="Path_144" data-name="Path 144" d="M146.808,275.358v16.237l69.752,21.025.718-15.957Z" transform="translate(-115.237 -216.142)" fill="#f5f5f5"/>
    <path id="Path_145" data-name="Path 145" d="M483.545,377.954l-11.669-3.528-.718,15.957,12.28,3.7Z" transform="translate(-369.836 -293.905)" opacity="0.1"/>
    <g id="Group_17" data-name="Group 17" transform="translate(105.114 86.807)" opacity="0.4">
      <line id="Line_11" data-name="Line 11" x2="3.82" y2="6.685" fill="none" stroke="#fff" stroke-linecap="round" stroke-miterlimit="10" stroke-width="7"/>
      <line id="Line_12" data-name="Line 12" x1="4.775" y2="4.775" transform="translate(0 0.955)" fill="none" stroke="#fff" stroke-linecap="round" stroke-miterlimit="10" stroke-width="7"/>
    </g>
    <ellipse id="Ellipse_20" data-name="Ellipse 20" cx="2.388" cy="4.775" rx="2.388" ry="4.775" transform="translate(77.416 47.648)" opacity="0.3"/>
    <ellipse id="Ellipse_21" data-name="Ellipse 21" cx="20.057" cy="40.114" rx="20.057" ry="40.114" transform="translate(59.747 12.31)" fill="#6c63ff" opacity="0.1"/>
    <ellipse id="Ellipse_22" data-name="Ellipse 22" cx="10.984" cy="21.967" rx="10.984" ry="21.967" transform="translate(68.82 30.457)" fill="#fff" opacity="0.1"/>
    <g id="Group_18" data-name="Group 18" transform="translate(0 23.718)" opacity="0.5">
      <rect id="Rectangle_13" data-name="Rectangle 13" width="0.318" height="1.804" transform="translate(0.743)" fill="#47e6b1"/>
      <rect id="Rectangle_14" data-name="Rectangle 14" width="0.318" height="1.804" transform="translate(1.804 0.743) rotate(90)" fill="#47e6b1"/>
    </g>
    <g id="Group_19" data-name="Group 19" transform="translate(112.902 111.674)" opacity="0.5">
      <rect id="Rectangle_15" data-name="Rectangle 15" width="0.318" height="1.804" transform="translate(0.743)" fill="#47e6b1"/>
      <rect id="Rectangle_16" data-name="Rectangle 16" width="0.318" height="1.804" transform="translate(1.804 0.743) rotate(90)" fill="#47e6b1"/>
    </g>
    <g id="Group_20" data-name="Group 20" transform="translate(105.06 73.383)" opacity="0.5">
      <rect id="Rectangle_17" data-name="Rectangle 17" width="0.318" height="1.804" transform="translate(0.743)" fill="#47e6b1"/>
      <rect id="Rectangle_18" data-name="Rectangle 18" width="0.318" height="1.804" transform="translate(1.804 0.743) rotate(90)" fill="#47e6b1"/>
    </g>
    <g id="Group_21" data-name="Group 21" transform="translate(91.477 110.101)" opacity="0.5">
      <rect id="Rectangle_19" data-name="Rectangle 19" width="0.318" height="1.804" transform="translate(0.743)" fill="#47e6b1"/>
      <rect id="Rectangle_20" data-name="Rectangle 20" width="0.318" height="1.804" transform="translate(1.804 0.743) rotate(90)" fill="#47e6b1"/>
    </g>
    <g id="Group_22" data-name="Group 22" transform="translate(81.926 133.129)" opacity="0.5">
      <rect id="Rectangle_21" data-name="Rectangle 21" width="0.318" height="1.804" transform="translate(0.743)" fill="#47e6b1"/>
      <rect id="Rectangle_22" data-name="Rectangle 22" width="0.318" height="1.804" transform="translate(1.804 0.743) rotate(90)" fill="#47e6b1"/>
    </g>
    <g id="Group_23" data-name="Group 23" transform="translate(13.584 51.628)" opacity="0.5">
      <rect id="Rectangle_23" data-name="Rectangle 23" width="0.318" height="1.804" transform="translate(0.743)" fill="#47e6b1"/>
      <rect id="Rectangle_24" data-name="Rectangle 24" width="0.318" height="1.804" transform="translate(1.804 0.743) rotate(90)" fill="#47e6b1"/>
    </g>
    <path id="Path_146" data-name="Path 146" d="M401.4,223.547a.39.39,0,0,1-.217-.471.188.188,0,0,0,.008-.043h0a.2.2,0,0,0-.351-.13h0a.185.185,0,0,0-.022.038.39.39,0,0,1-.471.217.188.188,0,0,0-.043-.008h0a.2.2,0,0,0-.13.351h0a.187.187,0,0,0,.038.022.39.39,0,0,1,.217.471.187.187,0,0,0-.008.043h0a.2.2,0,0,0,.351.13h0a.189.189,0,0,0,.022-.038.39.39,0,0,1,.471-.217.187.187,0,0,0,.043.008h0a.2.2,0,0,0,.13-.351h0a.187.187,0,0,0-.038-.022Z" transform="translate(-382.12 -200.008)" fill="#4d8af0" opacity="0.5"/>
    <path id="Path_147" data-name="Path 147" d="M734.593,149.354a.39.39,0,0,1-.217-.471.19.19,0,0,0,.009-.043h0a.2.2,0,0,0-.351-.13h0a.184.184,0,0,0-.022.038.39.39,0,0,1-.471.217.187.187,0,0,0-.043-.008h0a.2.2,0,0,0-.13.351h0a.189.189,0,0,0,.038.022.39.39,0,0,1,.217.471.186.186,0,0,0-.008.043h0a.2.2,0,0,0,.351.13h0a.186.186,0,0,0,.022-.038.39.39,0,0,1,.471-.217.188.188,0,0,0,.043.008h0a.2.2,0,0,0,.13-.351h0A.188.188,0,0,0,734.593,149.354Z" transform="translate(-643.659 -141.771)" fill="#4d8af0" opacity="0.5"/>
    <path id="Path_148" data-name="Path 148" d="M325.011,413.362a.39.39,0,0,1-.217-.471.188.188,0,0,0,.008-.043h0a.2.2,0,0,0-.351-.13h0a.186.186,0,0,0-.022.038.39.39,0,0,1-.471.217.188.188,0,0,0-.043-.008h0a.2.2,0,0,0-.13.351h0a.186.186,0,0,0,.038.022.39.39,0,0,1,.217.471.186.186,0,0,0-.008.043h0a.2.2,0,0,0,.351.13h0a.188.188,0,0,0,.022-.038.39.39,0,0,1,.471-.217.185.185,0,0,0,.043.008h0a.2.2,0,0,0,.13-.351h0A.188.188,0,0,0,325.011,413.362Z" transform="translate(-322.157 -349.004)" fill="#4d8af0" opacity="0.5"/>
    <path id="Path_149" data-name="Path 149" d="M338.334,599.894a.39.39,0,0,1-.217-.471.187.187,0,0,0,.008-.043h0a.2.2,0,0,0-.351-.13h0a.188.188,0,0,0-.022.038.39.39,0,0,1-.471.217.187.187,0,0,0-.043-.008h0a.2.2,0,0,0-.13.351h0a.194.194,0,0,0,.038.022.39.39,0,0,1,.217.471.188.188,0,0,0-.008.043h0a.2.2,0,0,0,.351.13h0a.185.185,0,0,0,.022-.038.39.39,0,0,1,.471-.217.186.186,0,0,0,.043.008h0a.2.2,0,0,0,.13-.351h0a.189.189,0,0,0-.038-.022Z" transform="translate(-332.615 -495.422)" fill="#4d8af0" opacity="0.5"/>
    <circle id="Ellipse_23" data-name="Ellipse 23" cx="0.637" cy="0.637" r="0.637" transform="translate(52.849 28.281)" fill="#f55f44" opacity="0.5"/>
    <circle id="Ellipse_24" data-name="Ellipse 24" cx="0.637" cy="0.637" r="0.637" transform="translate(70.041 111.374)" fill="#4d8af0" opacity="0.5"/>
    <circle id="Ellipse_25" data-name="Ellipse 25" cx="0.637" cy="0.637" r="0.637" transform="translate(109.199 45.473)" fill="#4d8af0" opacity="0.5"/>
    <circle id="Ellipse_26" data-name="Ellipse 26" cx="0.637" cy="0.637" r="0.637" transform="translate(120.66 74.126)" fill="#47e6b1" opacity="0.5"/>
    <circle id="Ellipse_27" data-name="Ellipse 27" cx="0.637" cy="0.637" r="0.637" transform="translate(78 1.857)" fill="#f55f44" opacity="0.5"/>
    <rect id="Rectangle_25" data-name="Rectangle 25" width="4.783" height="6.15" transform="translate(50.999 36.015) rotate(-177.779)" fill="#6c63ff"/>
    <path id="Path_150" data-name="Path 150" d="M632.21,349.208s6.619-3.162,6.513-.431-6.672,4.528-6.672,4.528Z" transform="translate(-564.191 -298.002)" fill="#ffb9b9"/>
    <path id="Path_151" data-name="Path 151" d="M515.657,448.958a95.5,95.5,0,0,1,4.277,13.159c1.154,5.515,2.911,13.106.651,18.489s-8.686,21.2-8.752,22.911.55,3.441-.815,3.388-8.8-2.393-9.1-3.43,2.535-3.663,2.535-3.663l7.006-21.953-7.309-14.3-5.272,21.336-1.033,26.629s-5.068-1.564-5.8-.225c0,0-2.271-3.165-2.559-4.544s1.072-27.654,1.072-27.654-4.652-29.927-.9-29.781S508.123,440.46,515.657,448.958Z" transform="translate(-451.27 -374.643)" fill="#6c63ff"/>
    <path id="Path_152" data-name="Path 152" d="M555.955,716.813s3.464,7.656,3.792,8.011,2.586,3.861.879,3.8-5.738-1.932-8.7-4.782-6.878-7.789-6.524-8.117a20.14,20.14,0,0,1,2.784-1.26Z" transform="translate(-496.155 -585.917)" fill="#575a89"/>
    <path id="Path_153" data-name="Path 153" d="M506.374,742.9a19.9,19.9,0,0,0,.839,4.819c.63,1.392.55,3.44-1.157,3.374s-6.119-.921-6.119-.921-.262-2.062.093-2.39,1.866-4.031,1.223-5.081S506.374,742.9,506.374,742.9Z" transform="translate(-460.416 -607.759)" fill="#575a89"/>
    <path id="Path_154" data-name="Path 154" d="M498.89,227.981s-3.639,5.671-5.058,6.984,2.572,4.2,2.572,4.2l7.143.961s-.09-6.5.278-7.169S498.89,227.981,498.89,227.981Z" transform="translate(-455.457 -204.056)" fill="#ffb9b9"/>
    <path id="Path_155" data-name="Path 155" d="M496.571,256.787s-1.472,2.678-2.837,2.625-8.429-3.062-8.731-4.1-2.34,7.431-2.34,7.431l17.284,30.417,4.216-2.914-2.043-17.859-1.678-9.639Z" transform="translate(-446.93 -225.441)" fill="#6c63ff"/>
    <path id="Path_156" data-name="Path 156" d="M464.66,276.509a9.565,9.565,0,0,1,1.06,4.486c0,.068-.005.137-.011.2-.164,3.16-1.328,6.814-1.745,9.472-.3,1.906-.217,3.3.9,3.625,2.7.789-.394,1.352,10.07,4.835s12.29.477,12.317-.206-1.482-5.87-1.127-6.2,4.962,4.3,6.354,3.666.159-4.1.159-4.1-3.136-7.3-3.07-9.009-4.75-9.758-4.75-9.758L481.539,252.2s-1.26-2.784-2.953-3.192a4.2,4.2,0,0,0-3.1.564l2.834,6.264,2.99,11.057-.5,4.084s-3.477-7.315-5.761-10.139-7.153-9.509-7.153-9.509-1.137-3.836-.279-4.982-3.58-1.322-5.472,3.392c-1,2.5-2.631,6.223-3.651,9.692-.909,3.073-1.338,5.945-.438,7.587C459.432,269.529,462.895,272.826,464.66,276.509Z" transform="translate(-427.224 -217.941)" fill="#575a89"/>
    <path id="Path_157" data-name="Path 157" d="M458.056,314.163c1.376,2.508,4.839,5.805,6.6,9.488.461-1.661,1.023-3.379,1.023-3.379s2.157-11.541-4.224-14.524a4.27,4.27,0,0,0-2.966.829C457.585,309.649,457.155,312.521,458.056,314.163Z" transform="translate(-427.224 -265.083)" opacity="0.1"/>
    <path id="Path_158" data-name="Path 158" d="M575.727,341.572l5.409,1.577,7.511.291.773,6.526-12.343.889S573.993,342.189,575.727,341.572Z" transform="translate(-519.564 -293.219)" fill="#575a89"/>
    <path id="Path_159" data-name="Path 159" d="M527.6,443.612s7.237,1.2,5.585,3.378-8.063-.112-8.063-.112Z" transform="translate(-480.254 -373.315)" fill="#ffb9b9"/>
    <path id="Path_160" data-name="Path 160" d="M489.086,410.885c-.164,3.16-1.328,6.814-1.745,9.472,2.305,2.182,4.5,4.106,5.324,4.138,1.707.066,4.451-.169,5.462.212s1.6-6.092,1.6-6.092a5.6,5.6,0,0,0-3.295-3.205A37.481,37.481,0,0,1,489.086,410.885Z" transform="translate(-450.601 -347.626)" opacity="0.1"/>
    <path id="Path_161" data-name="Path 161" d="M456.074,296.21s-5.777-.908-5.465,8.678-.609,15.7,1.715,17.5,9.871,9.956,11.578,10.023,4.451-.169,5.462.212,1.6-6.092,1.6-6.092a5.6,5.6,0,0,0-3.295-3.205c-2.691-1.13-9.033-5.137-8.98-6.5a43.56,43.56,0,0,1,1.6-6.092S462.455,299.193,456.074,296.21Z" transform="translate(-421.759 -257.594)" fill="#575a89"/>
    <circle id="Ellipse_28" data-name="Ellipse 28" cx="7.516" cy="7.516" r="7.516" transform="translate(41.011 17.29)" fill="#ffb9b9"/>
    <path id="Path_162" data-name="Path 162" d="M515.88,176.442a1.452,1.452,0,0,0,.632.317.451.451,0,0,0,.523-.362,1.874,1.874,0,0,0,.717.92c.351.183.894.03.945-.363a1.657,1.657,0,0,0,.381.805.571.571,0,0,0,.8.027,20.641,20.641,0,0,0-.107,2.557,3.256,3.256,0,0,1-.92,2.318c-.94.818-2.353.616-3.589.461a1.089,1.089,0,0,0-.562.031c-.463.2-.442.842-.448,1.345a3.736,3.736,0,0,1-3.271,3.548,1.873,1.873,0,0,1-1.392-.34c-.351-.3-.53-.782-.932-1.006-.654-.364-1.448.167-1.926.742s-.95,1.284-1.691,1.389c-.98.139-1.726-.859-2.093-1.779a10.37,10.37,0,0,1,.206-8.058C505.2,174.534,512.191,173.828,515.88,176.442Z" transform="translate(-462.291 -162.409)" fill="#2f2e41"/>
  </g>
</svg>
